<?xml version="1.0" encoding="UTF-8"?>
<svg width="159px" height="103px" viewBox="0 0 159 103" version="1.1" xmlns="http://www.w3.org/2000/svg" xmlns:xlink="http://www.w3.org/1999/xlink">
    <!-- Generator: Sketch 50 (54983) - http://www.bohemiancoding.com/sketch -->
    <title>Artboard</title>
    <desc>Created with Sketch.</desc>
    <defs></defs>
    <g id="Artboard" stroke="none" stroke-width="1" fill="none" fill-rule="evenodd">
        <g id="Group">
            <g id="logo_moov_login">
                <path d="M129.950687,23.9302308 C129.950687,26.9052308 132.369303,29.3148462 135.352397,29.3148462 C138.335491,29.3148462 140.754106,26.9052308 140.754106,23.9302308 C140.754106,20.9565769 138.335491,18.5456154 135.352397,18.5456154 C132.369303,18.5456154 129.950687,20.9565769 129.950687,23.9302308" id="Fill-1" fill="#86CBCE"></path>
                <path d="M20.3879504,79.36175 C20.3879504,82.33675 22.8065658,84.7463654 25.7896598,84.7463654 C28.7727538,84.7463654 31.1913692,82.33675 31.1913692,79.36175 C31.1913692,76.3880962 28.7727538,73.9771346 25.7896598,73.9771346 C22.8065658,73.9771346 20.3879504,76.3880962 20.3879504,79.36175" id="Fill-3" fill="#86CBCE"></path>
                <path d="M91.1206342,14.8909423 C88.7357795,12.5755577 86.0592325,11.4178654 83.0882923,11.4178654 C80.1173521,11.4178654 77.4300017,12.5661346 75.0235402,14.8599808 C72.6170786,17.1538269 71.4151983,20.1988269 71.4151983,23.9936346 C71.4151983,27.7884423 72.6076256,30.8119038 74.9924803,33.0640192 C77.3759846,35.3174808 80.0552325,36.4428654 83.0248222,36.4428654 C85.9957624,36.4428654 88.6844632,35.2851731 91.0895744,32.9711346 C93.4960359,30.65575 94.6979162,27.6430577 94.6979162,23.9303654 C94.6979162,20.2190192 93.5054889,17.2049808 91.1206342,14.8909423 M91.6851128,2.09709615 C94.4062239,3.26421154 96.811335,4.87151923 98.903147,6.91363462 C100.994959,8.95844231 102.668138,11.4919038 103.922685,14.5153654 C105.178583,17.5401731 105.806532,20.7817115 105.806532,24.2426731 C105.806532,30.5830577 103.578326,36.0470962 99.1219162,40.6334423 C94.6668564,45.2211346 89.2597453,47.5149808 82.8992325,47.5149808 C76.5400701,47.5149808 71.1856256,45.1915192 66.8331983,40.5405577 C62.4821214,35.8909423 60.3065829,30.2599808 60.3065829,23.6490192 C60.3065829,17.0394038 62.5874547,11.5013269 67.1478479,7.04017308 C71.708241,2.57767308 77.0842923,0.34575 83.2760017,0.34575 C86.1632154,0.34575 88.9667026,0.929980769 91.6851128,2.09709615" id="Fill-8" fill="#148B97"></path>
                <path d="M71.6837983,79.36175 C71.6837983,83.0744423 72.8856786,86.0871346 75.2921402,88.4025192 C77.6972513,90.7179038 80.3859521,91.87425 83.3568923,91.87425 C86.3264821,91.87425 89.0057299,90.7488654 91.3892342,88.4954038 C93.7740889,86.2432885 94.9665162,83.2198269 94.9665162,79.4250192 C94.9665162,75.6315577 93.7646359,72.5852115 91.3581744,70.2913654 C88.9517128,67.9988654 86.2643624,66.84925 83.2934222,66.84925 C80.3224821,66.84925 77.645935,68.0069423 75.2610803,70.3223269 C72.8762256,72.6363654 71.6837983,75.6504038 71.6837983,79.36175 M83.1057128,55.7771346 C89.2974222,55.7771346 94.6734735,58.0090577 99.2338667,62.4715577 C103.79426,66.9340577 106.075132,72.4707885 106.075132,79.0804038 C106.075132,85.6913654 103.899593,91.3223269 99.5485162,95.9719423 C95.1960889,100.622904 89.8416444,102.947712 83.4824821,102.947712 C77.1219692,102.947712 71.7148581,100.652519 67.2597983,96.0648269 C62.803388,91.4784808 60.5751829,86.0144423 60.5751829,79.6740577 C60.5751829,76.2130962 61.2031316,72.9715577 62.4576786,69.94675 C63.7135761,66.9232885 65.3854051,64.3898269 67.4785675,62.3450192 C69.5703795,60.3029038 71.9754906,58.6955962 74.6952513,57.5284808 C77.415012,56.3613654 80.2184991,55.7771346 83.1057128,55.7771346" id="Fill-11" fill="#148B97"></path>
                <path d="M155.277817,57.0279808 C157.746398,58.2381731 158.980689,59.5722115 158.980689,61.0327885 C158.980689,61.6991346 158.66739,62.7006731 158.039441,64.0347115 L140.717509,99.0670192 C140.257014,99.9864423 139.557492,100.726827 138.616244,101.289519 C137.673646,101.852212 136.701338,102.133558 135.696621,102.133558 L135.070022,102.133558 C134.023441,102.133558 133.029526,101.852212 132.089629,101.289519 C131.147031,100.726827 130.446159,99.9864423 129.985663,99.0670192 L112.665082,64.0347115 C112.037133,62.7006731 111.723834,61.6991346 111.723834,61.0327885 C111.723834,59.5722115 112.956774,58.2381731 115.426706,57.0279808 C116.806843,56.3199038 117.862877,55.9645192 118.596159,55.9645192 C119.32674,55.9645192 119.883116,56.0479808 120.258535,56.2149038 C120.635304,56.3831731 120.990467,56.6739423 121.325373,57.09125 C121.702142,57.5920192 122.047851,58.1439423 122.36115,58.7483654 C122.67445,59.3541346 123.480655,61.0852885 124.777065,63.9418269 C126.073475,66.7983654 127.465766,69.8325962 128.951236,73.0431731 C130.435356,76.2550962 131.83845,79.2893269 133.156467,82.1458654 C134.473133,85.00375 135.215868,86.5989423 135.383321,86.9314423 L147.935544,59.5291346 C148.27045,58.7389423 148.562142,58.1129808 148.813321,57.6539423 C149.56686,56.5272115 150.486501,55.9645192 151.574945,55.9645192 C152.662039,55.9645192 153.89768,56.3199038 155.277817,57.0279808" id="Fill-14" fill="#148B97"></path>
                <path d="M49.8889812,2.65992308 C50.2238872,3.28588462 50.4224,3.84857692 50.4845197,4.34934615 C50.5479897,4.85011538 50.5790496,5.57973077 50.5790496,6.53819231 L50.5790496,41.2595385 C50.5790496,44.1376154 49.7836479,45.8256923 48.1941949,46.3264615 C47.3987932,46.5768462 46.3954256,46.7020385 45.1827419,46.7020385 C43.9673573,46.7020385 43.005853,46.5997308 42.2941778,46.3883846 C41.583853,46.1810769 41.0396308,45.9320385 40.6628615,45.6399231 C40.2874427,45.3478077 39.9930496,44.9291538 39.7850838,44.388 C39.5744171,43.6785769 39.4704342,42.5949231 39.4704342,41.1343462 L39.4704342,20.1774231 C38.4252034,21.4697308 36.8978701,23.5239615 34.8897846,26.3387692 C32.8816991,29.1549231 31.6041949,30.9156923 31.0613231,31.6264615 C30.5171009,32.3358846 30.1403316,32.8245385 29.9323658,33.0951154 C29.7216991,33.3670385 29.2098872,33.7426154 28.3942291,34.2205 C27.5785709,34.7024231 26.6994427,34.9406923 25.7581949,34.9406923 C24.816947,34.9406923 23.9580752,34.7212692 23.1856308,34.2837692 C22.4104855,33.8462692 21.8568103,33.4195385 21.5219043,33.0008846 L21.0195453,32.313 C20.1822803,31.2710769 18.5307077,29.0499231 16.0621265,25.6508846 C13.5935453,22.2531923 12.2539214,20.4278077 12.0459556,20.1774231 L12.0459556,41.2595385 C12.0459556,42.2193462 12.0148957,42.9395385 11.9514256,43.4174231 C11.8879556,43.898 11.6894427,44.4297308 11.3545368,45.0139615 C10.726588,46.1393462 9.09527179,46.7020385 6.45923761,46.7020385 C3.90692991,46.7020385 2.31747692,46.1393462 1.69087863,45.0139615 C1.35462222,44.4297308 1.15745983,43.8872308 1.09398974,43.3864615 C1.03187009,42.8870385 0.999459829,42.1345385 0.999459829,41.1343462 L0.999459829,6.41434615 C0.999459829,5.45453846 1.03187009,4.73569231 1.09398974,4.25646154 C1.15745983,3.77723077 1.35462222,3.22261538 1.69087863,2.59665385 C2.31747692,1.513 3.94879316,0.971846154 6.58617778,0.971846154 C7.71513504,0.971846154 8.68744274,1.10646154 9.50445128,1.37703846 C10.3201094,1.65030769 10.8535282,1.93165385 11.1047077,2.22242308 L11.4814769,2.59665385 L25.727135,21.2408846 C32.8398359,11.8568462 37.5879385,5.66184615 39.9727932,2.65992308 C40.6844684,1.53453846 42.3671009,0.971846154 45.0247419,0.971846154 C47.6810325,0.971846154 49.3028957,1.53453846 49.8889812,2.65992308" id="Fill-5" fill="#148B97"></path>
            </g>
        </g>
    </g>
</svg>